<?xml version="1.0" encoding="utf-8"?>
<!-- Generator: Adobe Illustrator 25.2.1, SVG Export Plug-In . SVG Version: 6.00 Build 0)  -->
<svg version="1.1" id="Layer_1" xmlns="http://www.w3.org/2000/svg" xmlns:xlink="http://www.w3.org/1999/xlink" x="0px" y="0px"
	 viewBox="0 0 208.15 104.29" style="enable-background:new 0 0 208.15 104.29;" xml:space="preserve">
<style type="text/css">
	.st0{fill:#CD212A;}
	.st1{fill:none;stroke:#008C45;stroke-width:7;stroke-miterlimit:10;}
</style>
<g>
	<path class="st0" d="M0,0.01h13.16l13.92,63.24V0.01h11.01v91.2H24.93L11.01,28.93v62.28H0V0.01z"/>
	<path class="st0" d="M46.44,0.01h12.15v91.2H46.44V0.01z"/>
	<path class="st0" d="M66.94,0.01H80.1l13.92,63.24V0.01h11.01v91.2H91.87L77.95,28.93v62.28H66.94V0.01z"/>
	<path class="st0" d="M124.89,67.68l-2.4,23.52h-12.15L121.86,0h17.46l11.77,91.2h-12.65l-2.4-23.52H124.89z M130.46,11.89
		l-4.68,45.96h9.36L130.46,11.89z"/>
	<path class="st0" d="M155.51,26.64h-4.18l5.82-13.44h-5.69V0.01h12.65v12L155.51,26.64z"/>
	<path class="st0" d="M192.59,12.01l-2.53-2.4h-4.43l-2.53,2.4v25.68l2.53,2.4h11.89l7.59,7.2v36.72l-7.59,7.2h-19.23l-7.59-7.2
		V64.93h12.15v14.28l2.53,2.4h5.06l2.53-2.4V52.33l-2.53-2.4h-11.89l-7.59-7.2V7.21l7.59-7.2h18.6l7.59,7.2v19.2h-12.15V12.01z"/>
</g>
<line class="st1" x1="0.25" y1="100.79" x2="208.15" y2="100.79"/>
</svg>
